<svg width="97" height="77" viewBox="0 0 97 77" fill="none" xmlns="http://www.w3.org/2000/svg">
<path d="M63.0676 25.7866C63.0676 25.7866 65.7671 26.7486 65.1778 33.8039C64.5885 40.8592 44.0128 70.9174 41.3294 72.4732C38.646 74.0289 1.78015 58.8081 1.78015 58.8081C-0.0909948 58.1962 0.295074 56.052 2.05298 56.1252L2.57245 46.8193C-0.109117 45.5123 0.197017 43.7917 1.52233 41.6798C2.84766 39.5689 26.8758 17.3355 30.2359 15.8353C33.596 14.335 58.9824 23.2308 63.0676 25.7866Z" fill="#D37643"/>
<path d="M2.51809 46.7943L2.49522 46.8012C2.52194 46.8063 2.54497 46.8131 2.57317 46.8183L2.05371 56.1243C1.94925 56.1196 1.85157 56.1243 1.75693 56.135C11.5634 60.0205 23.6468 65.3043 38.8697 69.5204C38.8697 69.5204 40.8158 65.9278 38.6002 61.4993C29.8034 57.8339 2.51809 46.7943 2.51809 46.7943Z" fill="#FAE9D7"/>
<path d="M2.22799 45.0014C2.22799 45.0014 38.6058 59.1313 40.158 59.9359C41.7109 60.7416 41.9199 68.1105 40.2339 71.6573C40.0053 72.6944 40.9862 72.3253 41.7767 70.6123C42.5671 68.8983 43.3865 62.6093 42.0623 59.807C51.2349 46.9975 62.9517 28.4725 63.0276 27.4784C63.0276 27.4784 62.5801 26.7926 61.427 28.3951C60.2746 29.9977 40.8047 58.9332 40.8047 58.9332C40.8047 58.9332 4.58913 44.153 3.42721 43.8952C2.26605 43.6393 1.48499 44.0676 2.22799 45.0014Z" fill="#E7B490"/>
<path d="M14.0615 38.1983L19.8763 32.0817L44.4818 40.746L38.5531 48.1494L14.0615 38.1983Z" fill="#E7B490"/>
<path d="M2.49546 48.2054L2.42142 49.5305L37.396 62.3824L2.49546 48.2054ZM2.29948 51.7198L2.254 52.5373L37.586 65.4331L2.29948 51.7198ZM2.12945 54.7545L2.07849 55.669L34.5454 66.3017L2.12945 54.7545Z" fill="#F1C4B3"/>
<path d="M88.751 64.832C88.751 64.832 88.3022 67.6625 81.2589 68.3816C74.2157 69.1007 40.8844 54.4078 38.8614 52.0565C36.8384 49.7052 45.0151 10.668 45.0151 10.668C45.2722 8.7162 47.4508 8.70109 47.7024 10.4425L56.945 9.24053C57.7362 6.36425 59.4838 6.34851 61.8035 7.26255C64.1222 8.1768 90.3976 27.7031 92.4906 30.7297C94.5835 33.7564 90.5104 60.3465 88.751 64.832Z" fill="#1DBFC4"/>
<path d="M56.9586 9.18274L56.9476 9.16154C56.9475 9.18874 56.9451 9.21262 56.9451 9.2413L47.7025 10.4432C47.6879 10.3397 47.6653 10.2445 47.6374 10.1535C45.6228 20.5075 42.6529 33.3568 41.3102 49.0957C41.3102 49.0957 45.1996 50.3474 49.1446 47.3547C51.1296 38.0334 56.9586 9.18274 56.9586 9.18274Z" fill="#FAE9D7"/>
<path d="M58.6675 8.56766C58.6675 8.56766 51.4733 46.9245 50.9681 48.5982C50.4619 50.2729 43.2573 51.8344 39.4608 50.8298C38.3994 50.7959 38.9427 51.6922 40.7719 52.1539C42.602 52.6154 48.9345 52.2635 51.4452 50.4462C65.7239 57.105 86.0887 65.2127 87.0798 65.1043C87.0798 65.1043 87.6715 64.5383 85.8842 63.6997C84.097 62.8619 52.0727 49.0493 52.0727 49.0493C52.0727 49.0493 59.9359 10.7323 59.9756 9.54281C60.0143 8.35421 59.4486 7.6655 58.6675 8.56766Z" fill="#10D7DE"/>
<path d="M67.533 18.9469L74.6152 23.5369L70.6269 49.3165L62.2589 44.8515L67.533 18.9469Z" fill="#10D7DE"/>
<path d="M55.5683 9.41995L54.2522 9.59101L48.056 46.3333L55.5683 9.41995ZM52.078 9.87403L51.266 9.97978L45.0924 47.0815L52.078 9.87403ZM49.0637 10.2654L48.1555 10.3836L43.6791 44.2527L49.0637 10.2654Z" fill="#F1C4B3"/>
</svg>
